<svg width="100" height="99" viewBox="0 0 100 99" fill="none" xmlns="http://www.w3.org/2000/svg">
<path fill-rule="evenodd" clip-rule="evenodd" d="M31.4013 56.1975C31.8381 55.7607 31.8381 55.0328 31.4013 54.5961L27.9074 51.1021L32.4204 46.5891C32.8572 46.1524 32.8572 45.4244 32.4204 44.9877C31.9836 44.551 31.2557 44.551 30.819 44.9877L26.306 49.5008L22.2297 45.4244C21.793 44.9877 21.0651 44.9877 20.6283 45.4244C20.1916 45.8612 20.1916 46.5891 20.6283 47.0259L24.7046 51.1021L20.6283 55.1784C20.1916 55.6151 20.1916 56.343 20.6283 56.7798C21.0651 57.2165 21.793 57.2165 22.2297 56.7798L26.306 52.7035L29.7999 56.1975C30.3823 56.6342 30.9646 56.6342 31.4013 56.1975V56.1975ZM30.9651 70.6112C30.5284 71.048 30.5284 71.7759 31.1107 72.2126C31.5474 72.6493 32.2753 72.6493 32.7121 72.067C39.8456 64.2057 52.0744 64.3512 59.0622 71.6303C59.499 72.067 60.2269 72.067 60.6637 71.6303C61.1004 71.1935 61.1004 70.4656 60.6637 70.0289C52.6567 61.8764 38.9721 61.7308 30.9651 70.6112V70.6112ZM85.411 79.343L89.1961 40.7641C89.3417 39.1627 88.7594 37.5613 87.7403 36.3967C86.7212 35.232 85.1198 34.5041 83.5184 34.5041V24.459C83.5184 20.6739 80.6068 17.6167 76.8217 17.4711L15.5321 16.5977C11.6014 16.5977 8.6898 19.6549 8.54422 23.2944V25.9148C6.79724 26.3516 5.48701 27.5162 4.75911 29.2632C3.88562 30.2823 3.3033 31.5925 3.01214 32.6116C2.28423 35.232 2.42981 37.998 2.72098 40.7641C3.88562 53.5752 5.05027 66.2408 6.06934 79.0519C6.50608 84.5839 7.96189 86.9132 15.9689 87.35C38.8251 88.5146 61.6813 88.3691 84.5375 87.9323C85.411 87.9323 86.4301 87.9323 87.158 87.4956C88.0315 87.0588 88.6138 86.1853 88.4682 85.3119C88.0315 83.4193 84.8287 83.7105 82.9361 83.5649C84.2464 82.6914 85.1198 81.2356 85.411 79.343V79.343ZM15.5321 18.9292L76.8217 19.8027C79.2966 19.8027 81.4803 21.9864 81.3347 24.4613V34.6519H59.9343C58.3329 34.6519 56.7315 33.924 55.5669 32.7594L52.2185 28.9743C50.4715 27.0817 47.9967 25.9171 45.3762 25.9171H10.7279V23.5878C10.7279 20.8218 12.9116 18.7836 15.5321 18.9292L15.5321 18.9292ZM79.7334 82.4004H14.0763C12.3293 82.4004 10.7279 81.0902 10.5824 79.1976L6.36052 31.7382C6.21494 29.7001 7.81633 27.9531 9.85446 27.9531H45.3762C47.4144 27.9531 49.3069 28.8266 50.6172 30.2824L53.9655 34.0675C55.4213 35.8145 57.605 36.8336 59.9343 36.8336H83.5185C84.5375 36.8336 85.411 37.2703 86.1389 37.9982C86.8668 38.7261 87.158 39.7452 87.0124 40.6187L83.2273 79.1976C83.0817 80.9446 81.4803 82.4004 79.7334 82.4004V82.4004ZM64.45 49.2083L67.6528 46.0056C68.0895 45.5688 68.0895 44.8409 67.6528 44.4041C67.216 43.9674 66.4881 43.9674 66.0514 44.4041L62.8486 47.607L58.7723 43.5307C58.3356 43.0939 57.6077 43.0939 57.1709 43.5307C56.7342 43.9674 56.7342 44.6953 57.1709 45.1321L61.2472 49.2083L57.4621 52.9935C57.0254 53.4302 57.0254 54.1581 57.4621 54.5949C57.8988 55.0316 58.6268 55.0316 59.0635 54.5949L62.8486 50.8097L66.9249 54.886C67.3616 55.3227 68.0895 55.3227 68.5262 54.886C68.963 54.4493 68.963 53.7214 68.5262 53.2846L64.45 49.2083ZM84.2503 11.0656C82.9401 12.8126 81.921 14.5596 81.1931 16.5977C81.0476 17.1801 81.3386 17.7624 81.921 17.9079C82.5033 18.0535 83.0857 17.7624 83.2313 17.1801C83.8136 15.4331 84.687 13.6861 85.8517 12.2303C86.2884 11.7936 86.1428 11.0656 85.7061 10.6289C85.2694 10.6289 84.687 10.6289 84.2503 11.0656V11.0656ZM93.5677 15.2885C93.2765 14.8517 92.5486 14.5605 92.1118 14.9973L85.2695 19.3647C84.8328 19.6559 84.6872 20.3838 84.9784 20.8205C85.2695 21.2573 85.9975 21.5484 86.4342 21.1117L93.2765 16.7443C93.7132 16.4531 93.8588 15.7252 93.5677 15.2885V15.2885ZM95.6058 23.1484L87.89 23.7308C87.3077 23.7308 86.871 24.3131 86.871 24.8954C86.871 25.4777 87.4533 25.9145 88.0357 25.9145L95.7514 25.3322C96.3338 25.3322 96.7705 24.7498 96.7705 24.1675C96.6249 23.5852 96.1882 23.1484 95.6058 23.1484V23.1484Z" fill="#B0B0B0"/>
</svg>
